<svg width="60" height="60" viewBox="0 0 60 60" fill="none" xmlns="http://www.w3.org/2000/svg">
<rect width="60" height="60" rx="27" fill="url(#paint0_linear)"/>
<path fill-rule="evenodd" clip-rule="evenodd" d="M18.6349 38.5031H36.0175C36.6111 38.5031 37.3225 38.5638 37.9671 38.9194C38.2842 39.0944 38.6351 39.3363 38.9058 39.6534C39.1717 39.9648 39.3933 40.3915 39.3612 40.9086C39.3762 41.2686 39.3825 41.6098 39.3834 41.9128C39.3842 42.1559 39.579 42.3333 39.7788 42.3333C40.0087 42.3333 40.2704 42.377 40.5202 42.5094C42.8123 43.7245 42.6455 46.7898 40.4102 47.7873C39.9102 48.0104 39.3826 48.0254 38.9891 48.0254H15.8468C14.9512 48.0254 14.2288 47.6997 13.7316 47.1583C13.2455 46.6291 13.0178 45.9419 13.001 45.2766C12.9681 43.9768 13.7747 42.4831 15.4677 42.3359C15.8482 42.3028 16.1835 42.5844 16.2166 42.9649C16.2497 43.3454 15.968 43.6807 15.5875 43.7138C14.8335 43.7794 14.3634 44.4402 14.3837 45.2416C14.3934 45.627 14.5248 45.9772 14.7503 46.2227C14.9645 46.4559 15.3062 46.6423 15.8468 46.6423H38.9891C39.3719 46.6423 39.6375 46.6175 39.8465 46.5243C41.0271 45.9974 41.1482 44.4078 39.8724 43.7314C39.8661 43.7281 39.8386 43.7164 39.7788 43.7164C38.7739 43.7164 38.0035 42.8788 38.0003 41.9173C37.9993 41.6183 37.993 41.2811 37.9776 40.927L37.9755 40.8791L37.9801 40.8314C37.9852 40.7775 37.9722 40.69 37.8539 40.5515C37.7312 40.4077 37.5361 40.2613 37.2989 40.1305C36.9656 39.9466 36.5408 39.8862 36.0175 39.8862H18.6991C18.1788 39.9381 17.5041 40.1277 17.3029 40.882C17.3023 40.8859 17.3016 40.8922 17.3007 40.9014C17.2981 40.9277 17.2958 40.9626 17.2942 41.0036C17.2909 41.0861 17.2911 41.1702 17.2923 41.216C17.3074 41.8218 17.8377 42.3333 18.542 42.3333H32.338C32.72 42.3333 33.0296 42.6429 33.0296 43.0248C33.0296 43.4068 32.72 43.7164 32.338 43.7164H18.542C17.1875 43.7164 15.9459 42.7029 15.9096 41.2505C15.9077 41.1777 15.9076 41.0637 15.9121 40.9489C15.9158 40.8556 15.9245 40.6878 15.9601 40.5496C16.4035 38.8285 18.0105 38.5598 18.6037 38.5059L18.6349 38.5031Z" fill="white"/>
<path fill-rule="evenodd" clip-rule="evenodd" d="M19.5964 23.7416C19.3471 23.9909 19.3471 24.395 19.5964 24.6443L27.229 32.2769C27.4783 32.5262 27.8825 32.5262 28.1318 32.2769L30.1016 30.3071C30.3509 30.0578 30.3509 29.6536 30.1016 29.4043L22.4691 21.7717C22.2198 21.5224 21.8156 21.5224 21.5663 21.7717L19.5964 23.7416ZM21.1458 24.0426C21.0627 24.1257 21.0627 24.2605 21.1458 24.3436L27.469 30.6667C27.5521 30.7498 27.6868 30.7498 27.7699 30.6667L28.485 29.9516C28.5681 29.8685 28.5681 29.7338 28.485 29.6507L22.1619 23.3275C22.0788 23.2444 21.9441 23.2444 21.861 23.3275L21.1458 24.0426Z" fill="white"/>
<path fill-rule="evenodd" clip-rule="evenodd" d="M30.0778 13.1568C29.8285 13.4061 29.8285 13.8103 30.0778 14.0596L37.7104 21.6922C37.9597 21.9415 38.3639 21.9415 38.6132 21.6922L40.5831 19.7224C40.8324 19.4731 40.8324 19.0689 40.5831 18.8196L32.9505 11.187C32.7012 10.9377 32.297 10.9377 32.0477 11.187L30.0778 13.1568ZM31.6273 13.4579C31.5442 13.541 31.5442 13.6758 31.6273 13.7589L37.9504 20.082C38.0335 20.1651 38.1682 20.1651 38.2513 20.082L38.9665 19.3669C39.0496 19.2838 39.0496 19.149 38.9665 19.0659L32.6433 12.7428C32.5602 12.6597 32.4255 12.6597 32.3424 12.7428L31.6273 13.4579Z" fill="white"/>
<path fill-rule="evenodd" clip-rule="evenodd" d="M28.7116 29.6825C28.9609 29.9318 29.3651 29.9318 29.6144 29.6825L37.7957 21.5012C38.045 21.2519 38.045 20.8477 37.7957 20.5984L31.0516 13.8543C30.8023 13.605 30.3981 13.605 30.1488 13.8543L21.9675 22.0356C21.7182 22.2849 21.7182 22.6891 21.9675 22.9384L28.7116 29.6825ZM28.845 28.2818C28.9281 28.3649 29.0629 28.3649 29.146 28.2818L36.4723 20.9555C36.5554 20.8724 36.5554 20.7376 36.4723 20.6545L30.9924 15.1746C30.9093 15.0915 30.7745 15.0915 30.6914 15.1746L23.3651 22.5009C23.282 22.584 23.282 22.7188 23.3651 22.8019L28.845 28.2818Z" fill="white"/>
<path fill-rule="evenodd" clip-rule="evenodd" d="M41.8331 38.5375C42.0792 38.808 42.5018 38.8168 42.759 38.5568L46.8153 34.4573C47.0717 34.1982 47.0594 33.7773 46.7883 33.5336L35.1898 23.108C34.9374 22.8812 34.5516 22.8914 34.3116 23.1314L31.3401 26.103C31.099 26.344 31.0899 26.7319 31.3193 26.984L41.8331 38.5375ZM42.1888 36.7434C42.2707 36.8326 42.4105 36.8357 42.4961 36.75L45.0541 34.192C45.1399 34.1062 45.1367 33.9661 45.047 33.8843L35.0927 24.8068C35.0095 24.7309 34.8816 24.733 34.8009 24.8116L33.071 26.4959C32.9886 26.5762 32.9849 26.7074 33.0626 26.7922L42.1888 36.7434Z" fill="white"/>
<path fill-rule="evenodd" clip-rule="evenodd" d="M21.23 34.718C21.4696 34.4593 21.8734 34.4437 22.1321 34.6833L23.5685 36.0132C23.8272 36.2527 23.8427 36.6566 23.6032 36.9153C23.3636 37.174 22.9597 37.1896 22.701 36.95L21.2647 35.6201C21.006 35.3806 20.9905 34.9767 21.23 34.718Z" fill="white"/>
<path fill-rule="evenodd" clip-rule="evenodd" d="M33.9953 34.5768C34.254 34.8164 34.2695 35.2202 34.03 35.4789L32.7001 36.9153C32.4605 37.174 32.0566 37.1895 31.7979 36.95C31.5392 36.7104 31.5237 36.3065 31.7632 36.0478L33.0932 34.6115C33.3327 34.3528 33.7366 34.3373 33.9953 34.5768Z" fill="white"/>
<path fill-rule="evenodd" clip-rule="evenodd" d="M27.6325 33.2365C27.9851 33.2327 28.2739 33.5154 28.2777 33.868L28.2949 35.4639C28.2987 35.8164 28.016 36.1053 27.6634 36.1091C27.3109 36.1129 27.022 35.8302 27.0182 35.4776L27.0011 33.8817C26.9973 33.5292 27.28 33.2403 27.6325 33.2365Z" fill="white"/>
<defs>
<linearGradient id="paint0_linear" x1="30" y1="-2" x2="30" y2="60" gradientUnits="userSpaceOnUse">
<stop offset="0.00191281" stop-color="#5777F4"/>
<stop offset="1" stop-color="#071444"/>
</linearGradient>
</defs>
</svg>
